<svg width="45" height="46" viewBox="0 0 45 46" fill="none" xmlns="http://www.w3.org/2000/svg">
<path d="M16.7071 15.7929C16.3166 15.4024 15.6834 15.4024 15.2929 15.7929C14.9024 16.1834 14.9024 16.8166 15.2929 17.2071L16 16.5L16.7071 15.7929ZM29 30.5C29.5523 30.5 30 30.0523 30 29.5L30 20.5C30 19.9477 29.5523 19.5 29 19.5C28.4477 19.5 28 19.9477 28 20.5L28 28.5L20 28.5C19.4477 28.5 19 28.9477 19 29.5C19 30.0523 19.4477 30.5 20 30.5L29 30.5ZM16 16.5L15.2929 17.2071L28.2929 30.2071L29 29.5L29.7071 28.7929L16.7071 15.7929L16 16.5Z" fill="#222222"/>
</svg>
