<svg width="140" height="140" viewBox="0 0 140 140" fill="none" xmlns="http://www.w3.org/2000/svg">
<path d="M124.148 56.4088H83.6656V15.9264H124.148V56.4088ZM83.6656 8.92639C79.8002 8.92639 76.6656 12.061 76.6656 15.9264V56.4088C76.6656 60.2742 79.8002 63.4088 83.6656 63.4088H124.148C128.013 63.4088 131.148 60.2742 131.148 56.4088V15.9264C131.148 12.061 128.013 8.92639 124.148 8.92639H83.6656ZM124.148 124.074H83.6656V83.5912H124.148V124.074ZM83.6656 76.5912C79.8002 76.5912 76.6656 79.7258 76.6656 83.5912V124.074C76.6656 127.939 79.8002 131.074 83.6656 131.074H124.148C128.013 131.074 131.148 127.939 131.148 124.074V83.5912C131.148 79.7258 128.013 76.5912 124.148 76.5912H83.6656ZM56.5322 99.5946H39.5432V82.6056C39.5432 80.2858 37.663 78.4056 35.3432 78.4056C33.0234 78.4056 31.1432 80.2858 31.1432 82.6056V99.5946H14.1542C11.8344 99.5946 9.95419 101.475 9.95419 103.795C9.95419 106.114 11.8344 107.995 14.1542 107.995H31.1432V124.984C31.1432 127.303 33.0234 129.184 35.3432 129.184C37.663 129.184 39.5432 127.303 39.5432 124.984V107.995H56.5322C58.852 107.995 60.7322 106.114 60.7322 103.795C60.7322 101.475 58.852 99.5946 56.5322 99.5946ZM15.1006 56.4088V15.9264H55.5844V56.4088H15.1006ZM15.1006 8.92639C11.2352 8.92639 8.10059 12.061 8.10059 15.9264V56.4088C8.10059 60.2742 11.2352 63.4088 15.1006 63.4088H55.5844C59.4498 63.4088 62.5844 60.2742 62.5844 56.4088V15.9264C62.5844 12.061 59.4498 8.92639 55.5844 8.92639H15.1006Z" fill="url(#paint0_linear_4878_1017)"/>
<defs>
<linearGradient id="paint0_linear_4878_1017" x1="8.10059" y1="69.9664" x2="131.161" y2="131.008" gradientUnits="userSpaceOnUse">
<stop stop-color="#FF9665"/>
<stop offset="1" stop-color="#FFD46C"/>
</linearGradient>
</defs>
</svg>
