<svg width="80" height="80" viewBox="0 0 80 80" fill="none" xmlns="http://www.w3.org/2000/svg">
<path d="M15.2313 40.7064H8.7377C7.8537 40.7064 7.1377 39.9904 7.1377 39.1064C7.1377 38.2224 7.8537 37.5064 8.7377 37.5064H15.2321C16.1161 37.5064 16.8321 38.2224 16.8321 39.1064C16.8321 39.9904 16.1161 40.7064 15.2321 40.7064H15.2313ZM22.3697 20.8168C22.9377 20.14 22.8497 19.1304 22.1721 18.5624L14.4409 12.0752C13.7641 11.5072 12.7545 11.5952 12.1865 12.272C11.6185 12.9488 11.7065 13.9584 12.3841 14.5264L20.1153 21.0136C20.6681 21.4776 21.7065 21.6064 22.3697 20.8168ZM59.8833 21.0136L67.6145 14.5264C68.2913 13.9584 68.3801 12.9488 67.8121 12.272C67.2441 11.5952 66.2345 11.5064 65.5577 12.0752L57.8265 18.5624C57.1497 19.1304 57.0609 20.14 57.6289 20.8168C58.3049 21.6224 59.3521 21.46 59.8833 21.0136ZM72.8625 39.1056C72.8625 38.2216 72.1465 37.5056 71.2625 37.5056H64.7681C63.8841 37.5056 63.1681 38.2216 63.1681 39.1056C63.1681 39.9896 63.8841 40.7056 64.7681 40.7056H71.2625C72.1465 40.7056 72.8625 39.9896 72.8625 39.1056ZM41.6001 11.2664V4.772C41.6001 3.888 40.8841 3.172 40.0001 3.172C39.1161 3.172 38.4001 3.888 38.4001 4.772V11.2664C38.4001 12.1504 39.1161 12.8664 40.0001 12.8664C40.8841 12.8664 41.6001 12.1504 41.6001 11.2664ZM61.0689 35.8504C61.0689 51.4184 50.5345 51.4184 50.5345 64.6936C50.5345 70.5112 45.8185 75.228 40.0001 75.228C34.1817 75.228 29.4657 70.5112 29.4657 64.6936C29.4657 51.4184 18.9313 51.4184 18.9313 35.8504C18.9313 24.2144 28.3641 14.7816 40.0001 14.7816C51.6361 14.7816 61.0689 24.2144 61.0689 35.8504ZM40.9169 59.0032L44.1033 40.7064H35.8961L39.0825 59.0032H40.9161H40.9169ZM33.3521 62.2032C33.4305 63.0376 33.4777 65.1456 33.5009 65.372H46.4993C46.5241 65.1312 46.5601 63.1408 46.6481 62.2032H33.3521ZM45.2553 68.572H34.7449C35.9361 70.1824 37.8481 71.2288 40.0001 71.2288C42.1521 71.2288 44.0641 70.1824 45.2553 68.572ZM52.2609 49.1976C54.8409 45.6768 57.0689 42.636 57.0689 35.8512C57.0689 31.292 55.2937 27.0056 52.0697 23.7816C48.8457 20.5576 44.5593 18.7824 40.0001 18.7824C35.4409 18.7824 31.1545 20.5576 27.9305 23.7816C24.7065 27.0056 22.9313 31.292 22.9313 35.8512C22.9313 42.6368 25.1593 45.6768 27.7393 49.1976C29.6713 51.8344 31.7897 54.7248 32.8241 59.0032H35.8345L32.6481 40.7064H31.8449C30.9609 40.7064 30.2449 39.9904 30.2449 39.1064C30.2449 38.2224 30.9609 37.5064 31.8449 37.5064H48.1153C48.9993 37.5064 49.7153 38.2224 49.7153 39.1064C49.7153 39.9904 48.9993 40.7064 48.1153 40.7064H47.3513L44.1649 59.0032H47.1753C48.2105 54.7248 50.3281 51.8344 52.2601 49.1976H52.2609Z" fill="url(#paint0_linear_4878_896)"/>
<defs>
<linearGradient id="paint0_linear_4878_896" x1="7.13769" y1="39.1802" x2="75.294" y2="69.7913" gradientUnits="userSpaceOnUse">
<stop stop-color="#FF9665"/>
<stop offset="1" stop-color="#FFD46C"/>
</linearGradient>
</defs>
</svg>
