<svg width="176" height="32" viewBox="0 0 176 32" fill="none" xmlns="http://www.w3.org/2000/svg">
<path d="M115.673 14.1835C116.719 15.9926 117.253 17.9717 117.253 20.0617C117.253 20.0962 117.253 20.1271 117.25 20.1617L110.358 20.0998V20.0844C110.358 18.4744 109.893 17.2144 108.944 16.2271C108.39 15.6544 107.759 15.2553 107.03 15.0244L110.431 9.43803C110.713 9.56894 110.996 9.71076 111.271 9.86803C111.577 10.0444 111.875 10.2326 112.162 10.4289L119.511 4.36621L122.63 8.05439L115.51 13.9244C115.564 14.0126 115.618 14.0935 115.672 14.1817L115.673 14.1835Z" fill="url(#paint0_linear_4949_2769)"/>
<path d="M7.34067 20.9993H0V31.3411H7.34067V20.9993Z" fill="#444444"/>
<path d="M17.6762 14.2766L16.5148 20.9993L7.34067 20.9993L7.34082 14.2766H17.6762Z" fill="#444444"/>
<path d="M20.539 1.44116H7.34082V8.24116H20.539V1.44116Z" fill="#444444"/>
<path d="M42.3719 20.6039C42.3719 16.943 41.2444 13.9421 39.0205 11.6866C36.793 9.43117 33.8725 8.28662 30.3388 8.28662C27.003 8.28662 24.1834 9.43117 21.9595 11.6903C19.7439 13.9412 18.6201 16.8039 18.6201 20.2003C18.6201 23.5966 19.7476 26.3239 21.9751 28.5412C24.2026 30.7575 27.1158 31.8794 30.633 31.8794C32.8798 31.8794 34.8598 31.4757 36.5135 30.673C38.179 29.8703 39.6237 28.6139 40.8099 26.9466L41.3443 26.1975L35.5491 23.5003L35.166 23.8693C33.8799 25.1139 32.3848 25.7175 30.5945 25.7175C29.1068 25.7175 27.9289 25.3412 26.9957 24.573C26.2908 23.993 25.7985 23.2666 25.5079 22.3757H42.3361L42.371 20.6048L42.3719 20.6039ZM26.0396 16.693C26.4035 16.0903 26.783 15.6439 27.1708 15.3603C28.159 14.6303 29.2819 14.2766 30.6028 14.2766C31.8119 14.2766 32.8376 14.5875 33.7442 15.233C34.329 15.6439 34.7782 16.1284 35.1036 16.693H26.0396Z" fill="#444444"/>
<path d="M67.8629 20.6039C67.8629 16.943 66.7354 13.9421 64.5125 11.6866C62.285 9.43117 59.3645 8.28662 55.8307 8.28662C52.4913 8.28662 49.6716 9.43117 47.4515 11.6903C45.2359 13.9412 44.1084 16.8039 44.1084 20.2003C44.1084 23.5966 45.2396 26.3239 47.4671 28.5412C49.6946 30.7575 52.6077 31.8794 56.1213 31.8794C58.3681 31.8794 60.3481 31.4757 62.0017 30.673C63.671 29.8703 65.1166 28.6139 66.3018 26.9466L66.8326 26.1975L61.0411 23.5003L60.6579 23.8693C59.3681 25.1139 57.8722 25.7175 56.0828 25.7175C54.5987 25.7175 53.4217 25.3412 52.4877 24.573C51.7791 23.993 51.2868 23.2666 50.9962 22.3757H67.8281L67.8629 20.6039ZM51.527 16.693C51.8946 16.0903 52.275 15.6439 52.6618 15.3603C53.65 14.6303 54.7729 14.2766 56.0938 14.2766C57.3029 14.2766 58.3287 14.5875 59.2352 15.233C59.8164 15.6439 60.2656 16.1284 60.5947 16.693H51.527Z" fill="#444444"/>
<path d="M85.4262 0.726562V10.2202C84.7873 9.74747 84.1172 9.35929 83.4196 9.06384C82.2151 8.54929 80.9098 8.28747 79.5421 8.28747C76.5712 8.28747 74.0137 9.41293 71.942 11.6375C69.885 13.8429 68.8428 16.6975 68.8428 20.1238C68.8428 23.5502 69.9199 26.2475 72.0429 28.4875C74.1814 30.7384 76.7536 31.8802 79.6979 31.8802C81.0115 31.8802 82.2509 31.6457 83.382 31.1775C84.0677 30.8929 84.7497 30.5011 85.4271 30.0057V31.3429H92.2838V0.726562H85.4262ZM84.2254 24.0393C83.7487 24.5384 83.2179 24.9111 82.6212 25.1575C82.0281 25.4029 81.3699 25.5266 80.6412 25.5266C79.235 25.5266 78.0883 25.0311 77.1276 24.0129C76.1514 22.9829 75.6784 21.692 75.6784 20.0638C75.6784 18.4357 76.1431 17.1784 77.0964 16.1647C78.0378 15.1693 79.1919 14.6857 80.6219 14.6857C82.0519 14.6857 83.2757 15.162 84.2281 16.1457C85.1888 17.1366 85.6572 18.412 85.6572 20.0447C85.6572 21.6775 85.1888 23.0302 84.2235 24.0402L84.2254 24.0393Z" fill="#444444"/>
<path d="M135.263 0.726562V10.2202C134.624 9.74747 133.954 9.35929 133.257 9.06384C132.052 8.54929 130.747 8.28747 129.379 8.28747C126.408 8.28747 123.851 9.41293 121.779 11.6375C119.722 13.8429 118.68 16.6975 118.68 20.1238C118.68 23.5502 119.757 26.2475 121.88 28.4875C124.018 30.7384 126.591 31.8802 129.535 31.8802C130.848 31.8802 132.088 31.6457 133.219 31.1775C133.901 30.8929 134.587 30.5011 135.264 30.0057V31.3429H142.121V0.726562H135.263ZM134.062 24.0393C133.586 24.5384 133.051 24.9111 132.458 25.1575C131.865 25.4029 131.207 25.5266 130.479 25.5266C129.073 25.5266 127.926 25.0311 126.965 24.0129C125.989 22.9829 125.516 21.692 125.516 20.0638C125.516 18.4357 125.981 17.1784 126.934 16.1647C127.876 15.1693 129.03 14.6857 130.46 14.6857C131.89 14.6857 133.11 15.162 134.066 16.1457C135.027 17.1366 135.495 18.412 135.495 20.0447C135.495 21.6775 135.027 23.0302 134.061 24.0402L134.062 24.0393Z" fill="#444444"/>
<path d="M176 0.726562H169.144V31.342H176V0.726562Z" fill="#444444"/>
<path d="M164.158 11.6874C161.927 9.4319 159.01 8.28735 155.477 8.28735C152.137 8.28735 149.318 9.4319 147.097 11.691C144.882 13.9419 143.754 16.8046 143.754 20.201C143.754 23.5974 144.886 26.3246 147.113 28.5419C149.341 30.7583 152.254 31.8801 155.767 31.8801C158.014 31.8801 159.994 31.4764 161.648 30.6737C163.317 29.871 164.763 28.6146 165.948 26.9474L166.479 26.1983L160.687 23.501L160.304 23.8701C159.014 25.1146 157.518 25.7183 155.729 25.7183C154.245 25.7183 153.068 25.3419 152.134 24.5737C151.425 23.9937 150.933 23.2674 150.642 22.3764H167.474L167.509 20.621V20.6055C167.509 16.9446 166.381 13.9437 164.158 11.6883L164.158 11.6874ZM151.173 16.6928C151.541 16.0901 151.921 15.6437 152.308 15.3601C153.296 14.6301 154.419 14.2764 155.74 14.2764C156.949 14.2764 157.975 14.5874 158.881 15.2328C159.462 15.6437 159.912 16.1283 160.241 16.6928H151.173Z" fill="#444444"/>
<path d="M117.25 20.162C117.238 22.2365 116.704 24.1956 115.661 25.9974C114.608 27.8338 113.147 29.2856 111.323 30.3229C109.499 31.3565 107.468 31.8793 105.279 31.8793C105.182 31.8793 105.09 31.8793 104.996 31.872C101.881 31.8102 99.1817 30.6584 96.9615 28.4447C94.6762 26.1629 93.5176 23.3584 93.5176 20.1038V20.0847H100.355C100.355 21.7174 100.82 22.9965 101.769 23.9884C102.637 24.8911 103.694 25.3674 104.996 25.4365C105.104 25.4402 105.213 25.4438 105.325 25.4438C106.782 25.4438 107.955 24.9638 108.917 23.9684C109.881 22.9656 110.354 21.6974 110.358 20.0993L117.249 20.1611L117.25 20.162Z" fill="#444444"/>
<path d="M7.34067 8.24121H0V21.0003H7.34067V8.24121Z" fill="url(#paint1_linear_4949_2769)"/>
<path d="M7.34067 1.44043H0V8.24043H7.34067V1.44043Z" fill="#14C4ED"/>
<path d="M110.432 9.43785L108.712 12.2651C106.577 11.1506 101.786 11.9151 99.771 13.7024C101.708 10.5179 104.412 8.66149 110.432 9.43785Z" fill="url(#paint2_linear_4949_2769)"/>
<path d="M108.712 12.2652L107.031 15.0233C106.519 14.8579 105.962 14.7779 105.346 14.7779C103.905 14.7779 102.743 15.2579 101.79 16.2452C100.826 17.2442 100.356 18.4961 100.356 20.0833H93.519C93.5227 16.6024 94.8326 13.6597 97.4085 11.3397C99.6745 9.31152 102.316 8.28516 105.261 8.28516C106.322 8.28516 107.361 8.4197 108.364 8.68425C109.068 8.87243 109.762 9.11879 110.432 9.43697C104.413 8.66061 101.709 10.517 99.7716 13.7015C101.786 11.9152 106.578 11.1506 108.713 12.2642L108.712 12.2652Z" fill="url(#paint3_linear_4949_2769)"/>
<path d="M127.93 3.68818L122.631 8.05636L119.512 4.36818L124.808 0L127.93 3.68818Z" fill="#14C4ED"/>
<defs>
<linearGradient id="paint0_linear_4949_2769" x1="109.166" y1="18.6908" x2="122.259" y2="7.61375" gradientUnits="userSpaceOnUse">
<stop stop-color="#FF3C3C"/>
<stop offset="1" stop-color="#E56C33"/>
</linearGradient>
<linearGradient id="paint1_linear_4949_2769" x1="-1.65092" y1="10.1921" x2="8.91849" y2="19.1349" gradientUnits="userSpaceOnUse">
<stop stop-color="#FF3F7F"/>
<stop offset="1" stop-color="#E56C33"/>
</linearGradient>
<linearGradient id="paint2_linear_4949_2769" x1="99.771" y1="11.4824" x2="110.432" y2="11.4824" gradientUnits="userSpaceOnUse">
<stop stop-color="#FFB400"/>
<stop offset="1" stop-color="#E56C33"/>
</linearGradient>
<linearGradient id="paint3_linear_4949_2769" x1="93.5181" y1="14.1842" x2="0.0914866" y2="14.1842" gradientUnits="userSpaceOnUse">
<stop stop-color="#FFB400"/>
<stop offset="1" stop-color="#E56C33"/>
</linearGradient>
</defs>
</svg>
