<svg width="46" height="46" viewBox="0 0 46 46" fill="none" xmlns="http://www.w3.org/2000/svg">
<rect width="46" height="46" rx="23" fill="#222222"/>
<path d="M22.8272 33C23.9621 33 24.8907 32.0769 24.8907 30.9487H20.7637C20.7637 32.0769 21.6819 33 22.8272 33Z" fill="white"/>
<path d="M29.0179 21.7179V26.8461L30.3488 28.1692C30.9988 28.8154 30.5345 29.9231 29.6163 29.9231H16.0281C15.1099 29.9231 14.6559 28.8154 15.3059 28.1692L16.6368 26.8461V21.7179C16.6368 18.559 18.3186 15.9333 21.2797 15.2359V14.5385C21.2797 13.6872 21.971 13 22.8274 13C23.6837 13 24.375 13.6872 24.375 14.5385V15.2359C27.3258 15.9333 29.0179 18.5692 29.0179 21.7179Z" fill="white"/>
</svg>
