<svg width="58" height="58" viewBox="0 0 58 58" fill="none" xmlns="http://www.w3.org/2000/svg">
<path d="M13.7193 50.6635H3.32848C2.24088 50.6635 1.35962 49.7841 1.35962 48.6988C1.35962 47.6134 2.24088 46.734 3.32848 46.734H13.7193C14.8069 46.734 15.6882 47.6134 15.6882 48.6988C15.6882 49.7841 14.8069 50.6635 13.7193 50.6635Z" fill="url(#paint0_linear_4930_1523)"/>
<path d="M26.7949 57.9725H3.32848C2.24088 57.9725 1.35962 57.0931 1.35962 56.0077C1.35962 54.9224 2.24088 54.043 3.32848 54.043H26.7949C27.8825 54.043 28.7638 54.9224 28.7638 56.0077C28.7638 57.0931 27.8825 57.9725 26.7949 57.9725Z" fill="url(#paint1_linear_4930_1523)"/>
<path d="M55.3567 7.26808L49.3423 1.2661C48.524 0.449539 47.4364 0 46.2795 0C45.1226 0 44.035 0.449539 43.2168 1.2661L20.0504 24.3844C19.7511 24.683 19.5566 25.0697 19.4944 25.4878L17.8792 36.4355C17.7886 37.0501 17.9941 37.6717 18.4352 38.111C18.8069 38.482 19.3093 38.6863 19.8275 38.6863C19.9228 38.6863 20.0189 38.6792 20.1142 38.6651L31.0847 37.0532C31.5036 36.9919 31.8911 36.797 32.1904 36.4983L55.3567 13.3809C56.175 12.5643 56.6255 11.479 56.6255 10.3245C56.6255 9.16997 56.175 8.08463 55.3567 7.26808ZM29.8671 33.2604L22.1618 34.3921L23.2959 26.7028L39.0404 10.9909L45.6117 17.5485L29.8671 33.2604ZM52.572 10.6019L48.3957 14.7696L41.8244 8.21195L46.0007 4.04428C46.1543 3.89103 46.404 3.89103 46.5575 4.04428L52.572 10.0463C52.7256 10.1995 52.7256 10.4486 52.572 10.6019Z" fill="black"/>
<path d="M55.3567 7.26808L49.3423 1.2661C48.524 0.449539 47.4364 0 46.2795 0C45.1226 0 44.035 0.449539 43.2168 1.2661L20.0504 24.3844C19.7511 24.683 19.5566 25.0697 19.4944 25.4878L17.8792 36.4355C17.7886 37.0501 17.9941 37.6717 18.4352 38.111C18.8069 38.482 19.3093 38.6863 19.8275 38.6863C19.9228 38.6863 20.0189 38.6792 20.1142 38.6651L31.0847 37.0532C31.5036 36.9919 31.8911 36.797 32.1904 36.4983L55.3567 13.3809C56.175 12.5643 56.6255 11.479 56.6255 10.3245C56.6255 9.16997 56.175 8.08463 55.3567 7.26808ZM29.8671 33.2604L22.1618 34.3921L23.2959 26.7028L39.0404 10.9909L45.6117 17.5485L29.8671 33.2604ZM52.572 10.6019L48.3957 14.7696L41.8244 8.21195L46.0007 4.04428C46.1543 3.89103 46.404 3.89103 46.5575 4.04428L52.572 10.0463C52.7256 10.1995 52.7256 10.4486 52.572 10.6019Z" fill="url(#paint2_linear_4930_1523)"/>
<defs>
<linearGradient id="paint0_linear_4930_1523" x1="1.35962" y1="48.6977" x2="5.58721" y2="56.2881" gradientUnits="userSpaceOnUse">
<stop stop-color="#FF9665"/>
<stop offset="1" stop-color="#FFD46C"/>
</linearGradient>
<linearGradient id="paint1_linear_4930_1523" x1="1.35962" y1="56.0067" x2="4.02935" y2="65.1743" gradientUnits="userSpaceOnUse">
<stop stop-color="#FF9665"/>
<stop offset="1" stop-color="#FFD46C"/>
</linearGradient>
<linearGradient id="paint2_linear_4930_1523" x1="17.8583" y1="19.3328" x2="41.7466" y2="0.478361" gradientUnits="userSpaceOnUse">
<stop stop-color="#78BEFF"/>
<stop offset="1" stop-color="#8792FF"/>
</linearGradient>
</defs>
</svg>
