<svg width="58" height="58" viewBox="0 0 58 58" fill="none" xmlns="http://www.w3.org/2000/svg">
<path d="M47.0926 58H10.8645C8.45383 58 6.5 56.0319 6.5 53.6036V4.39644C6.5 1.96814 8.45383 0 10.8645 0H36.7859L51.4571 14.7786V53.6036C51.4571 56.0319 49.5033 58 47.0926 58Z" fill="url(#paint0_linear_4930_1513)"/>
<path d="M47.0926 58H10.8645C8.45383 58 6.5 56.0319 6.5 53.6036V4.39644C6.5 1.96814 8.45383 0 10.8645 0H36.7859L51.4571 14.7786V53.6036C51.4571 56.0319 49.5033 58 47.0926 58Z" fill="url(#paint1_linear_4930_1513)"/>
<path d="M15.3768 43.3917C13.6306 40.3451 14.6704 36.4362 17.6948 34.6773L23.7251 31.1702C26.7496 29.4112 30.6301 30.4586 32.3762 33.5052C32.7997 34.2441 32.5481 35.19 31.8146 35.6166C31.0811 36.0432 30.1421 35.7898 29.7186 35.0509C28.8184 33.4803 26.8187 32.9405 25.2595 33.8473L19.2292 37.3544C17.6701 38.2612 17.1343 40.2755 18.0345 41.8461C18.9346 43.4167 20.9343 43.9564 22.4935 43.0496L26.1425 40.9274C26.876 40.5008 27.815 40.7543 28.2385 41.4932C28.662 42.2321 28.4104 43.178 27.6769 43.6046L24.0279 45.7268C21.0034 47.4857 17.1229 46.4383 15.3768 43.3917Z" fill="white"/>
<path d="M25.5648 37.4667C25.1413 36.7278 25.3929 35.7819 26.1264 35.3553C26.8599 34.9287 27.7989 35.1821 28.2224 35.921C29.1221 37.4907 31.1223 38.0313 32.6815 37.1246L38.7118 33.6175C40.2709 32.7107 40.8067 30.6964 39.9065 29.1258C39.0063 27.5552 37.0067 27.0155 35.4475 27.9223L31.6541 30.1284C30.9206 30.555 29.9816 30.3016 29.5581 29.5627C29.1346 28.8238 29.3853 27.8784 30.1197 27.4513L33.9131 25.2451C36.9376 23.4862 40.8181 24.5336 42.5642 27.5802C44.3104 30.6268 43.2706 34.5357 40.2462 36.2946L34.2159 39.8017C31.1914 41.5607 27.3109 40.5133 25.5648 37.4667Z" fill="white"/>
<path d="M36.8289 0L51.5001 14.7786H41.1933C38.7827 14.7786 36.8289 12.8105 36.8289 10.3822V0Z" fill="#E56C33"/>
<defs>
<linearGradient id="paint0_linear_4930_1513" x1="6.5002" y1="28.9845" x2="39.2526" y2="8.98895" gradientUnits="userSpaceOnUse">
<stop stop-color="#78BEFF"/>
<stop offset="1" stop-color="#8792FF"/>
</linearGradient>
<linearGradient id="paint1_linear_4930_1513" x1="6.5" y1="28.984" x2="55.4011" y2="47.6479" gradientUnits="userSpaceOnUse">
<stop stop-color="#FF9665"/>
<stop offset="1" stop-color="#FFD46C"/>
</linearGradient>
</defs>
</svg>
