<svg width="58" height="58" viewBox="0 0 58 58" fill="none" xmlns="http://www.w3.org/2000/svg">
<path d="M47.201 57.967H10.7284C8.30149 57.967 6.33447 56 6.33447 53.5731V4.39394C6.33447 1.96702 8.30149 0 10.7284 0H36.8248L51.595 14.7702V53.5731C51.595 56 49.628 57.967 47.201 57.967Z" fill="#00ACEA"/>
<path d="M47.201 57.967H10.7284C8.30149 57.967 6.33447 56 6.33447 53.5731V4.39394C6.33447 1.96702 8.30149 0 10.7284 0H36.8248L51.595 14.7702V53.5731C51.595 56 49.628 57.967 47.201 57.967Z" fill="url(#paint0_linear_4930_1500)"/>
<path d="M36.8679 0L51.6381 14.7702H41.2619C38.8349 14.7702 36.8679 12.8032 36.8679 10.3763V0Z" fill="#00EFD1"/>
<path d="M39.2868 29.6181C38.7148 29.0461 37.7877 29.0461 37.215 29.6181L30.4725 36.3606V18.6186C30.4725 17.8094 29.8171 17.1539 29.0079 17.1539C28.1987 17.1539 27.5433 17.8094 27.5433 18.6186V36.3606L20.8007 29.6181C20.2288 29.0461 19.3017 29.0461 18.729 29.6181C18.1571 30.19 18.1571 31.1171 18.729 31.6898L27.9717 40.9325C27.9717 40.9325 27.9783 40.9383 27.9819 40.942C28.0127 40.9727 28.0449 41.002 28.0786 41.0299C28.0969 41.0445 28.1159 41.0577 28.1342 41.0716C28.154 41.0863 28.173 41.1016 28.1936 41.1148C28.2148 41.1295 28.2375 41.1419 28.2595 41.1551C28.2785 41.1661 28.2968 41.1785 28.3166 41.1888C28.3386 41.2005 28.362 41.2108 28.3847 41.2217C28.4052 41.2313 28.4257 41.2415 28.4469 41.2503C28.4689 41.2591 28.4916 41.2664 28.5136 41.2745C28.5363 41.2825 28.559 41.2913 28.5824 41.2986C28.6044 41.3052 28.6271 41.3103 28.6498 41.3162C28.674 41.3221 28.6974 41.3287 28.7216 41.3338C28.7472 41.3389 28.7736 41.3418 28.7992 41.3455C28.8204 41.3484 28.8417 41.3528 28.8629 41.355C28.9112 41.3594 28.9588 41.3623 29.0072 41.3623C29.0555 41.3623 29.1038 41.3601 29.1514 41.355C29.1734 41.3528 29.1939 41.3492 29.2151 41.3455C29.2408 41.3418 29.2671 41.3389 29.2928 41.3338C29.3169 41.3287 29.3411 41.3221 29.3645 41.3162C29.3872 41.3103 29.4092 41.306 29.4319 41.2986C29.4553 41.2913 29.478 41.2825 29.5008 41.2745C29.5227 41.2664 29.5454 41.2591 29.5674 41.2503C29.5886 41.2415 29.6091 41.2313 29.6296 41.2217C29.6523 41.2108 29.675 41.2012 29.6977 41.1888C29.7175 41.1785 29.7358 41.1668 29.7549 41.1551C29.7768 41.1419 29.7995 41.1295 29.8208 41.1148C29.8413 41.1009 29.8603 41.0863 29.8801 41.0716C29.8984 41.0577 29.9182 41.0445 29.9358 41.0299C29.9694 41.002 30.0017 40.9727 30.0324 40.942C30.0361 40.9391 30.039 40.9361 30.0427 40.9325L39.2853 31.6898C39.8573 31.1179 39.8573 30.1907 39.2853 29.6181H39.2868Z" fill="white"/>
<path d="M38.8658 49.5417H19.1509C18.3417 49.5417 17.6863 48.8862 17.6863 48.077C17.6863 47.2678 18.3417 46.6124 19.1509 46.6124H38.8658C39.675 46.6124 40.3304 47.2678 40.3304 48.077C40.3304 48.8862 39.675 49.5417 38.8658 49.5417Z" fill="white"/>
<defs>
<linearGradient id="paint0_linear_4930_1500" x1="6.33467" y1="28.968" x2="39.1771" y2="8.77074" gradientUnits="userSpaceOnUse">
<stop stop-color="#78BEFF"/>
<stop offset="1" stop-color="#8792FF"/>
</linearGradient>
</defs>
</svg>
