<svg width="140" height="140" viewBox="0 0 140 140" fill="none" xmlns="http://www.w3.org/2000/svg">
<path d="M96.8184 111.461C96.8184 111.461 97.8726 91.0364 97.8264 90.7844C101.07 88.13 104.443 85.0948 107.916 81.6214C130.026 59.5112 131.026 26.9864 130.525 14.735C130.466 13.307 129.865 12.0218 128.923 11.0782C127.98 10.1346 126.694 9.53399 125.266 9.47659C113.015 8.97679 80.4916 9.97499 58.38 32.0852C54.9066 35.5586 51.8728 38.9298 49.2184 42.175C48.9664 42.1288 28.5404 43.183 28.5404 43.183C27.6458 43.2306 26.8086 43.6352 26.2136 44.3044C19.1114 52.3152 13.5422 60.9882 9.65997 70.0798C8.57917 72.611 10.8794 74.5808 12.4264 74.7264L31.4566 76.5044C31.1892 77.8862 31.0296 79.058 30.9358 79.9988C30.772 81.634 31.3544 83.2552 32.5164 84.4158L44.051 95.9504L55.5856 107.485C56.7476 108.647 58.3688 109.229 60.0026 109.066C60.942 108.972 62.1152 108.812 63.497 108.543L65.275 127.574C65.4822 129.798 67.8188 131.237 69.9216 130.34C79.0132 126.458 87.6848 120.889 95.697 113.786C96.3676 113.193 96.7708 112.354 96.8184 111.46V111.461ZM97.0662 18.8146C108.14 16.1854 118.238 15.9656 123.875 16.1266C124.036 21.763 123.816 31.8612 121.187 42.9352C117.891 56.8148 111.833 68.2388 103.183 76.8894C99.6744 80.3978 96.089 83.6192 92.5288 86.4626C87.1542 90.7536 82.2122 93.898 77.8372 96.2024L43.8018 62.167C48.2468 53.7152 54.7302 45.2018 63.1134 36.82C71.764 28.1694 83.188 22.1116 97.0676 18.816L97.0662 18.8146ZM17.7576 68.502C21 61.9794 25.207 55.706 30.3058 49.791L43.9936 49.063C38.2746 57.2516 35.028 64.3818 33.1898 69.944L17.7562 68.502H17.7576ZM58.8588 101.294L38.7044 81.1398C38.0408 80.4762 37.7524 79.5256 37.94 78.6058C38.3796 76.44 39.333 72.2778 40.7974 68.628L71.3734 99.204C67.7474 100.66 63.5684 101.616 61.3942 102.059C60.4744 102.246 59.5224 101.958 58.8588 101.294ZM71.498 122.242L70.056 106.809C75.6182 104.971 82.7484 101.724 90.937 96.005L90.209 109.693C84.294 114.793 78.0206 118.999 71.498 122.241V122.242ZM38.5924 106.14L17.3782 127.354C16.0944 128.638 14.0042 128.731 12.677 127.495C11.2826 126.197 11.2532 124.013 12.5888 122.678L33.803 101.464C35.0868 100.18 37.177 100.086 38.5042 101.322C39.8986 102.62 39.928 104.804 38.5924 106.14ZM48.8544 116.402L37.5872 127.669C36.3034 128.953 34.2132 129.046 32.886 127.81C31.4916 126.512 31.4622 124.328 32.7978 122.993L44.065 111.726C45.3488 110.442 47.439 110.348 48.7662 111.584C50.1606 112.882 50.19 115.066 48.8544 116.402ZM28.3318 95.879L17.0646 107.146C15.7808 108.43 13.6906 108.524 12.3634 107.288C10.969 105.99 10.9396 103.806 12.2752 102.47L23.5424 91.203C24.8262 89.9192 26.9164 89.8254 28.2436 91.0616C29.638 92.3594 29.6674 94.5434 28.3318 95.879ZM79.2764 59.8878C86.3324 67.4184 98.2996 67.4184 105.356 59.8878C111.576 53.249 111.576 42.1218 105.356 35.483C98.2996 27.9524 86.3324 27.9524 79.2764 35.483C73.0562 42.1218 73.0562 53.249 79.2764 59.8878ZM99.8326 39.4282C104.691 43.8592 104.691 51.5102 99.8326 55.9426C95.5962 59.8066 89.0372 59.8066 84.8008 55.9426C79.9414 51.5116 79.9414 43.8606 84.8008 39.4282C89.0372 35.5642 95.5962 35.5642 99.8326 39.4282Z" fill="url(#paint0_linear_4878_1014)"/>
<defs>
<linearGradient id="paint0_linear_4878_1014" x1="9.38139" y1="69.9685" x2="84.1979" y2="11.0362" gradientUnits="userSpaceOnUse">
<stop stop-color="#78BEFF"/>
<stop offset="1" stop-color="#8792FF"/>
</linearGradient>
</defs>
</svg>
