<svg width="80" height="80" viewBox="0 0 80 80" fill="none" xmlns="http://www.w3.org/2000/svg">
<path d="M39.9999 30.4872C45.2799 30.4872 49.5127 34.7696 49.5127 40C49.5127 45.2304 45.2223 49.5128 39.9999 49.5128C34.7775 49.5128 30.4871 45.2304 30.4871 40C30.4871 34.7696 34.7775 30.4872 39.9999 30.4872ZM39.9999 26.2016C32.3791 26.2016 26.2015 32.3792 26.2015 40C26.2015 47.6208 32.3791 53.7984 39.9999 53.7984C47.6207 53.7984 53.7983 47.6208 53.7983 40C53.7983 32.3792 47.6207 26.2016 39.9999 26.2016ZM39.9999 9.368C41.5007 9.368 42.9975 9.4768 44.4735 9.692L45.6351 13.9704C45.9831 15.2512 46.9039 16.2984 48.1303 16.8064L50.6359 17.8448C51.1631 18.0632 51.7199 18.1712 52.2767 18.1712C53.0143 18.1712 53.7495 17.9808 54.4063 17.6048L58.2559 15.4008C60.6615 17.192 62.8079 19.3392 64.5991 21.744L62.3951 25.5936C61.7359 26.7456 61.6471 28.1376 62.1551 29.3632L63.1935 31.8688C63.7015 33.0944 64.7487 34.016 66.0295 34.364L70.3079 35.5256C70.5231 37.0016 70.6319 38.4984 70.6319 39.9992C70.6319 41.5 70.5231 42.9968 70.3079 44.4728L66.0295 45.6344C64.7487 45.9824 63.7015 46.9032 63.1935 48.1296L62.1551 50.6352C61.6471 51.8608 61.7359 53.2536 62.3951 54.4048L64.5991 58.2544C62.8079 60.66 60.6607 62.8064 58.2559 64.5976L54.4063 62.3936C53.7495 62.0176 53.0151 61.8272 52.2767 61.8272C51.7207 61.8272 51.1631 61.9352 50.6359 62.1536L48.1303 63.192C46.9047 63.7 45.9831 64.7472 45.6351 66.028L44.4735 70.3064C42.9975 70.5216 41.5007 70.6304 39.9999 70.6304C38.4991 70.6304 37.0023 70.5216 35.5263 70.3064L34.3647 66.028C34.0167 64.7472 33.0959 63.7 31.8695 63.192L29.3639 62.1536C28.8367 61.9352 28.2799 61.8272 27.7231 61.8272C26.9855 61.8272 26.2503 62.0176 25.5935 62.3936L21.7439 64.5976C19.3383 62.8064 17.1919 60.6592 15.4007 58.2544L17.6047 54.4048C18.2639 53.2528 18.3527 51.8608 17.8447 50.6352L16.8063 48.1296C16.2983 46.904 15.2511 45.9824 13.9703 45.6344L9.69194 44.4728C9.47674 42.9968 9.36794 41.5 9.36794 39.9992C9.36794 38.4984 9.47674 37.0016 9.69194 35.5256L13.9703 34.364C15.2511 34.016 16.2983 33.0952 16.8063 31.8688L17.8447 29.3632C18.3527 28.1376 18.2639 26.7448 17.6047 25.5936L15.4007 21.744C17.1919 19.3384 19.3391 17.192 21.7439 15.4008L25.5935 17.6048C26.2503 17.9808 26.9847 18.1712 27.7231 18.1712C28.2791 18.1712 28.8367 18.0632 29.3639 17.8448L31.8695 16.8064C33.0951 16.2984 34.0167 15.2512 34.3647 13.9704L35.5263 9.692C37.0023 9.4768 38.4991 9.368 39.9999 9.368ZM39.9999 5.0824C37.2807 5.0824 34.6335 5.3936 32.0927 5.9816L30.2279 12.8472L27.7223 13.8856L21.5471 10.3504C17.0143 13.1776 13.1767 17.0152 10.3495 21.548L13.8847 27.7232L12.8463 30.2288L5.98074 32.0936C5.39274 34.6344 5.08154 37.2808 5.08154 40.0008C5.08154 42.7208 5.39274 45.3672 5.98074 47.908L12.8463 49.7728L13.8847 52.2784L10.3495 58.4536C13.1767 62.9864 17.0143 66.824 21.5471 69.6512L27.7223 66.116L30.2279 67.1544L32.0927 74.02C34.6335 74.608 37.2799 74.9192 39.9999 74.9192C42.7199 74.9192 45.3663 74.608 47.9071 74.02L49.7719 67.1544L52.2775 66.116L58.4527 69.6512C62.9855 66.824 66.8231 62.9864 69.6503 58.4536L66.1151 52.2784L67.1535 49.7728L74.0191 47.908C74.6071 45.3672 74.9183 42.7208 74.9183 40.0008C74.9183 37.2808 74.6071 34.6344 74.0191 32.0936L67.1535 30.2288L66.1151 27.7232L69.6503 21.548C66.8231 17.0152 62.9855 13.1776 58.4527 10.3504L52.2775 13.8856L49.7719 12.8472L47.9071 5.9816C45.3663 5.3936 42.7199 5.0824 39.9999 5.0824Z" fill="url(#paint0_linear_4878_899)"/>
<defs>
<linearGradient id="paint0_linear_4878_899" x1="5.08185" y1="39.9821" x2="48.1842" y2="6.03364" gradientUnits="userSpaceOnUse">
<stop stop-color="#78BEFF"/>
<stop offset="1" stop-color="#8792FF"/>
</linearGradient>
</defs>
</svg>
