<svg width="200" height="46" viewBox="0 0 200 46" fill="none" xmlns="http://www.w3.org/2000/svg">
<path d="M127.673 21.2431C128.719 23.0521 129.253 25.0312 129.253 27.1212C129.253 27.1558 129.253 27.1867 129.25 27.2212L122.358 27.1594V27.144C122.358 25.534 121.893 24.274 120.944 23.2867C120.39 22.714 119.759 22.3149 119.03 22.084L122.431 16.4976C122.713 16.6285 122.996 16.7703 123.271 16.9276C123.577 17.104 123.875 17.2921 124.162 17.4885L131.511 11.4258L134.63 15.114L127.51 20.984C127.564 21.0721 127.618 21.1531 127.672 21.2412L127.673 21.2431Z" fill="url(#paint0_linear_4701_546)"/>
<path d="M19.3407 28.0588H12V38.4007H19.3407V28.0588Z" fill="white"/>
<path d="M29.6762 21.3362L28.5148 28.0589L19.3407 28.0588L19.3408 21.3362H29.6762Z" fill="white"/>
<path d="M32.539 8.50073H19.3408V15.3007H32.539V8.50073Z" fill="white"/>
<path d="M54.3719 27.6635C54.3719 24.0026 53.2444 21.0016 51.0205 18.7462C48.793 16.4907 45.8725 15.3462 42.3388 15.3462C39.003 15.3462 36.1834 16.4907 33.9595 18.7498C31.7439 21.0007 30.6201 23.8635 30.6201 27.2598C30.6201 30.6562 31.7476 33.3835 33.9751 35.6007C36.2026 37.8171 39.1158 38.9389 42.633 38.9389C44.8798 38.9389 46.8598 38.5353 48.5135 37.7326C50.179 36.9298 51.6237 35.6735 52.8099 34.0062L53.3443 33.2571L47.5491 30.5598L47.166 30.9289C45.8799 32.1735 44.3848 32.7771 42.5945 32.7771C41.1068 32.7771 39.9289 32.4007 38.9957 31.6326C38.2908 31.0526 37.7985 30.3262 37.5079 29.4353H54.3361L54.3709 27.6644L54.3719 27.6635ZM38.0396 23.7526C38.4035 23.1498 38.783 22.7035 39.1708 22.4198C40.159 21.6898 41.2819 21.3362 42.6028 21.3362C43.8119 21.3362 44.8376 21.6471 45.7442 22.2926C46.329 22.7035 46.7782 23.188 47.1036 23.7526H38.0396Z" fill="white"/>
<path d="M79.8629 27.6635C79.8629 24.0026 78.7354 21.0016 76.5125 18.7462C74.285 16.4907 71.3645 15.3462 67.8307 15.3462C64.4913 15.3462 61.6716 16.4907 59.4515 18.7498C57.2359 21.0007 56.1084 23.8635 56.1084 27.2598C56.1084 30.6562 57.2396 33.3835 59.4671 35.6007C61.6946 37.8171 64.6077 38.9389 68.1213 38.9389C70.3681 38.9389 72.3481 38.5353 74.0017 37.7326C75.671 36.9298 77.1166 35.6735 78.3018 34.0062L78.8326 33.2571L73.0411 30.5598L72.6579 30.9289C71.3681 32.1735 69.8722 32.7771 68.0828 32.7771C66.5987 32.7771 65.4217 32.4007 64.4877 31.6326C63.7791 31.0526 63.2868 30.3262 62.9962 29.4353H79.8281L79.8629 27.6635ZM63.527 23.7526C63.8946 23.1498 64.275 22.7035 64.6618 22.4198C65.65 21.6898 66.7729 21.3362 68.0938 21.3362C69.3029 21.3362 70.3287 21.6471 71.2352 22.2926C71.8164 22.7035 72.2656 23.188 72.5947 23.7526H63.527Z" fill="white"/>
<path d="M97.4262 7.78613V17.2798C96.7873 16.807 96.1172 16.4189 95.4196 16.1234C94.2151 15.6089 92.9098 15.347 91.5421 15.347C88.5712 15.347 86.0137 16.4725 83.942 18.697C81.885 20.9025 80.8428 23.757 80.8428 27.1834C80.8428 30.6098 81.9199 33.307 84.0429 35.547C86.1814 37.798 88.7536 38.9398 91.6979 38.9398C93.0115 38.9398 94.2509 38.7052 95.382 38.237C96.0677 37.9525 96.7497 37.5607 97.4271 37.0652V38.4025H104.284V7.78613H97.4262ZM96.2254 31.0989C95.7487 31.5979 95.2179 31.9707 94.6212 32.217C94.0281 32.4625 93.3699 32.5861 92.6412 32.5861C91.235 32.5861 90.0883 32.0907 89.1276 31.0725C88.1514 30.0425 87.6784 28.7516 87.6784 27.1234C87.6784 25.4952 88.1431 24.2379 89.0964 23.2243C90.0378 22.2289 91.1919 21.7452 92.6219 21.7452C94.0519 21.7452 95.2757 22.2216 96.2281 23.2052C97.1888 24.1961 97.6572 25.4716 97.6572 27.1043C97.6572 28.737 97.1888 30.0898 96.2235 31.0998L96.2254 31.0989Z" fill="white"/>
<path d="M147.263 7.78613V17.2798C146.624 16.807 145.954 16.4189 145.257 16.1234C144.052 15.6089 142.747 15.347 141.379 15.347C138.408 15.347 135.851 16.4725 133.779 18.697C131.722 20.9025 130.68 23.757 130.68 27.1834C130.68 30.6098 131.757 33.307 133.88 35.547C136.018 37.798 138.591 38.9398 141.535 38.9398C142.848 38.9398 144.088 38.7052 145.219 38.237C145.901 37.9525 146.587 37.5607 147.264 37.0652V38.4025H154.121V7.78613H147.263ZM146.062 31.0989C145.586 31.5979 145.051 31.9707 144.458 32.217C143.865 32.4625 143.207 32.5861 142.479 32.5861C141.073 32.5861 139.926 32.0907 138.965 31.0725C137.989 30.0425 137.516 28.7516 137.516 27.1234C137.516 25.4952 137.981 24.2379 138.934 23.2243C139.876 22.2289 141.03 21.7452 142.46 21.7452C143.89 21.7452 145.11 22.2216 146.066 23.2052C147.027 24.1961 147.495 25.4716 147.495 27.1043C147.495 28.737 147.027 30.0898 146.061 31.0998L146.062 31.0989Z" fill="white"/>
<path d="M188 7.78613H181.144V38.4016H188V7.78613Z" fill="white"/>
<path d="M176.158 18.7469C173.927 16.4915 171.01 15.3469 167.477 15.3469C164.137 15.3469 161.318 16.4915 159.097 18.7506C156.882 21.0015 155.754 23.8642 155.754 27.2606C155.754 30.6569 156.886 33.3842 159.113 35.6015C161.341 37.8178 164.254 38.9396 167.767 38.9396C170.014 38.9396 171.994 38.536 173.648 37.7333C175.317 36.9306 176.763 35.6742 177.948 34.0069L178.479 33.2578L172.687 30.5606L172.304 30.9296C171.014 32.1742 169.518 32.7778 167.729 32.7778C166.245 32.7778 165.068 32.4015 164.134 31.6333C163.425 31.0533 162.933 30.3269 162.642 29.436H179.474L179.509 27.6806V27.6651C179.509 24.0042 178.381 21.0033 176.158 18.7478L176.158 18.7469ZM163.173 23.7524C163.541 23.1496 163.921 22.7033 164.308 22.4197C165.296 21.6896 166.419 21.336 167.74 21.336C168.949 21.336 169.975 21.6469 170.881 22.2924C171.462 22.7033 171.912 23.1878 172.241 23.7524H163.173Z" fill="white"/>
<path d="M129.25 27.2216C129.238 29.2961 128.704 31.2552 127.661 33.057C126.608 34.8934 125.147 36.3452 123.323 37.3825C121.499 38.4161 119.468 38.9388 117.279 38.9388C117.182 38.9388 117.09 38.9388 116.996 38.9316C113.881 38.8697 111.182 37.7179 108.961 35.5043C106.676 33.2225 105.518 30.4179 105.518 27.1634V27.1443H112.355C112.355 28.777 112.82 30.0561 113.769 31.0479C114.637 31.9507 115.694 32.427 116.996 32.4961C117.104 32.4997 117.213 32.5034 117.325 32.5034C118.782 32.5034 119.955 32.0234 120.917 31.0279C121.881 30.0252 122.354 28.757 122.358 27.1588L129.249 27.2207L129.25 27.2216Z" fill="white"/>
<path d="M19.3407 15.3008H12V28.0599H19.3407V15.3008Z" fill="url(#paint1_linear_4701_546)"/>
<path d="M19.3407 8.5H12V15.3H19.3407V8.5Z" fill="#14C4ED"/>
<path d="M122.432 16.4974L120.712 19.3247C118.577 18.2102 113.786 18.9747 111.771 20.762C113.708 17.5774 116.412 15.7211 122.432 16.4974Z" fill="url(#paint2_linear_4701_546)"/>
<path d="M120.712 19.3247L119.031 22.0829C118.519 21.9175 117.962 21.8375 117.346 21.8375C115.905 21.8375 114.743 22.3175 113.79 23.3047C112.826 24.3038 112.356 25.5556 112.356 27.1429H105.519C105.523 23.662 106.833 20.7193 109.408 18.3993C111.674 16.3711 114.316 15.3447 117.261 15.3447C118.322 15.3447 119.361 15.4793 120.364 15.7438C121.068 15.932 121.762 16.1784 122.432 16.4965C116.413 15.7202 113.709 17.5765 111.772 20.7611C113.786 18.9747 118.578 18.2102 120.713 19.3238L120.712 19.3247Z" fill="url(#paint3_linear_4701_546)"/>
<path d="M139.93 10.7477L134.631 15.1159L131.512 11.4278L136.808 7.05957L139.93 10.7477Z" fill="#14C4ED"/>
<defs>
<linearGradient id="paint0_linear_4701_546" x1="121.166" y1="25.7503" x2="134.259" y2="14.6733" gradientUnits="userSpaceOnUse">
<stop stop-color="#FF3C3C"/>
<stop offset="1" stop-color="#E56C33"/>
</linearGradient>
<linearGradient id="paint1_linear_4701_546" x1="10.3491" y1="17.2517" x2="20.9185" y2="26.1944" gradientUnits="userSpaceOnUse">
<stop stop-color="#FF3F7F"/>
<stop offset="1" stop-color="#E56C33"/>
</linearGradient>
<linearGradient id="paint2_linear_4701_546" x1="111.771" y1="18.542" x2="122.432" y2="18.542" gradientUnits="userSpaceOnUse">
<stop stop-color="#FFB400"/>
<stop offset="1" stop-color="#E56C33"/>
</linearGradient>
<linearGradient id="paint3_linear_4701_546" x1="105.518" y1="21.2438" x2="12.0915" y2="21.2438" gradientUnits="userSpaceOnUse">
<stop stop-color="#FFB400"/>
<stop offset="1" stop-color="#E56C33"/>
</linearGradient>
</defs>
</svg>
