<svg width="44" height="44" viewBox="0 0 44 44" fill="none" xmlns="http://www.w3.org/2000/svg">
<path d="M12.0049 21.8975C12.0562 21.3933 12.4823 21 13 21L31 21C31.5523 21 32 21.4477 32 22C32 22.4141 31.7485 22.77 31.3896 22.9219C31.3297 22.9473 31.2665 22.9662 31.2012 22.9795C31.1362 22.9928 31.0689 23 31 23L13 23C12.9311 23 12.8638 22.9928 12.7988 22.9795C12.7335 22.9662 12.6703 22.9473 12.6104 22.9219C12.2815 22.7827 12.0425 22.4721 12.0049 22.1025C12.0015 22.0689 12 22.0346 12 22L12.0049 21.8975Z" fill="#222222"/>
</svg>
